# xmcd CD database file
#
# Track frame offsets:
#	150
#	28887
#	59397
#	94627
#	120357
#	154872
#
# Disc length: 2497 seconds
#
# Revision: 0
# Processed by: cddbd v1.5.2PL0 Copyright (c) Steve Scherf et al.
# Submitted via: CDex 1.70beta3
#
DISCID=4409bf06
DTITLE=Sonny Clark - Leapin' And Lopin'
DYEAR=1961
DGENRE=Jazz
TTITLE0=Somethin' Special
TTITLE1=Deep In A Dream
TTITLE2=Melody For C
TTITLE3=Eric Walks
TTITLE4=Voodoo
TTITLE5=Midnight Mambo
EXTD=YEAR: 1961
EXTT0=
EXTT1=
EXTT2=
EXTT3=
EXTT4=
EXTT5=
PLAYORDER=
